<?xml version="1.0" encoding="UTF-8" standalone="no"?>
<!DOCTYPE svg PUBLIC "-//W3C//DTD SVG 1.1//EN" "http://www.w3.org/Graphics/SVG/1.1/DTD/svg11.dtd">
<svg xmlns="http://www.w3.org/2000/svg" version="1.1" viewBox="0 0 512 512">
<g stroke-width="2.00" fill="none" stroke-linecap="butt">
<path stroke="#898941" vector-effect="non-scaling-stroke" d="
  M 400.21 288.25
  C 398.32 289.11 396.96 289.05 395.35 287.55
  C 392.18 284.60 388.93 281.40 385.59 277.94
  C 385.28 277.62 384.76 277.61 384.45 277.93
  L 347.00 315.50
  C 346.86 315.64 346.86 315.86 347.00 316.00
  C 361.84 330.66 376.58 345.42 391.21 360.29
  C 406.30 375.62 423.76 387.54 443.61 396.05
  C 443.91 396.18 444.26 396.11 444.50 395.88
  L 465.00 375.38
  C 465.40 374.98 465.51 374.36 465.28 373.84
  C 454.97 350.71 440.62 331.50 421.81 314.19
  C 419.95 312.48 419.51 310.59 420.50 308.54"
/>
<path stroke="#898941" vector-effect="non-scaling-stroke" d="
  M 42.80 52.01
  C 46.09 54.61 48.75 57.79 50.80 61.56
  C 50.98 61.88 51.42 61.92 51.65 61.63
  C 54.64 57.91 57.93 54.93 61.52 52.68
  C 61.73 52.55 61.73 52.26 61.53 52.12
  C 57.65 49.59 54.69 46.45 52.65 42.71
  C 52.45 42.34 51.92 42.32 51.70 42.68
  C 49.51 46.17 46.55 49.08 42.84 51.42
  C 42.63 51.55 42.61 51.85 42.80 52.01"
/>
<path stroke="#61554d" vector-effect="non-scaling-stroke" d="
  M 313.79 82.45
  C 299.95 20.53 211.58 20.98 197.98 83.24
  C 197.90 83.61 198.02 83.70 198.35 83.51
  C 234.49 62.81 276.97 62.13 313.07 82.98
  C 313.72 83.35 313.96 83.18 313.79 82.45"
/>
<path stroke="#61554d" vector-effect="non-scaling-stroke" d="
  M 329.19 103.04
  C 271.62 49.09 176.02 73.15 154.53 150.21
  C 154.26 151.15 154.37 151.27 154.85 150.57
  C 155.73 149.27 156.40 146.59 157.25 145.03
  C 190.79 83.85 266.58 67.75 323.17 108.12
  C 323.47 108.33 323.88 108.32 324.16 108.08
  L 329.16 103.94
  C 329.44 103.71 329.45 103.29 329.19 103.04"
/>
<path stroke="#924f52" vector-effect="non-scaling-stroke" d="
  M 267.37 131.71
  C 284.65 126.96 287.99 103.31 272.21 94.83
  C 269.14 93.18 264.52 92.27 258.37 92.12
  C 197.50 90.56 147.90 139.53 152.00 201.45
  C 152.08 202.70 152.35 202.74 152.81 201.58
  C 169.49 159.22 209.76 133.11 255.07 132.45
  C 261.84 132.35 265.94 132.10 267.37 131.71"
/>
<path stroke="#924f52" vector-effect="non-scaling-stroke" d="
  M 282.85 96.22
  C 292.65 108.21 289.08 125.49 276.65 134.01
  C 276.35 134.21 276.38 134.34 276.73 134.40
  C 314.35 141.33 345.50 166.29 359.19 202.07
  C 359.50 202.88 359.69 202.85 359.77 201.99
  C 364.46 151.70 331.04 108.89 283.39 95.40
  C 282.34 95.10 282.16 95.37 282.85 96.22"
/>
<path stroke="#3a312a" vector-effect="non-scaling-stroke" d="
  M 356.29 148.50
  C 357.81 152.40 357.95 152.40 356.71 148.50"
/>
<path stroke="#61554d" vector-effect="non-scaling-stroke" d="
  M 356.71 148.50
  C 352.54 133.25 345.07 119.90 334.28 108.43
  C 334.08 108.21 333.75 108.18 333.53 108.35
  L 329.13 111.94
  C 328.86 112.15 328.86 112.56 329.13 112.80
  C 340.68 123.05 349.73 134.95 356.29 148.50"
/>
<path stroke="#61554d" vector-effect="non-scaling-stroke" d="
  M 356.71 148.50
  L 356.29 148.50"
/>
<path stroke="#61554d" vector-effect="non-scaling-stroke" d="
  M 278.23 140.77
  C 230.67 131.79 182.55 152.37 161.52 196.99
  C 161.38 197.29 161.47 197.38 161.79 197.27
  C 202.36 182.60 241.22 163.99 278.35 141.44
  C 278.89 141.11 278.85 140.88 278.23 140.77"
/>
<path stroke="#61554d" vector-effect="non-scaling-stroke" d="
  M 348.46 192.99
  C 336.09 169.17 314.09 151.67 288.41 143.39
  C 287.60 143.13 286.73 143.24 286.03 143.68
  L 279.95 147.56
  C 279.67 147.74 279.65 148.15 279.91 148.36
  C 301.33 165.69 324.11 180.64 348.24 193.21
  C 348.54 193.36 348.61 193.29 348.46 192.99"
/>
<path stroke="#98645a" vector-effect="non-scaling-stroke" d="
  M 311.79 252.24
  C 309.66 248.77 313.71 246.17 315.78 243.80
  C 318.90 240.20 324.29 244.63 328.71 246.75"
/>
<path stroke="#978977" vector-effect="non-scaling-stroke" d="
  M 328.71 246.75
  L 344.76 255.36
  C 345.03 255.50 345.42 255.48 345.79 255.29
  L 349.02 253.65
  C 349.35 253.48 349.59 253.26 349.68 253.03
  C 353.30 243.35 355.74 233.40 356.99 223.19
  C 357.92 215.57 356.18 209.36 352.91 202.75
  C 352.77 202.46 352.53 202.23 352.24 202.09
  C 324.63 188.26 298.68 171.44 274.41 151.64
  C 274.08 151.37 273.62 151.33 273.25 151.55
  C 236.80 172.95 198.82 190.62 159.29 204.56
  C 158.58 204.81 158.01 205.34 157.70 206.03
  C 153.68 215.12 154.46 220.90 156.54 231.36
  C 163.16 264.62 181.86 296.90 204.61 321.65
  C 215.24 333.22 229.23 344.69 244.06 349.19
  C 276.21 358.95 309.05 325.29 324.72 301.42
  C 324.89 301.16 324.98 300.84 324.95 300.51
  C 324.77 298.05 325.50 295.50 327.15 292.87
  C 327.42 292.44 327.44 291.90 327.22 291.45
  C 324.74 286.41 321.34 282.01 324.79 276.36
  C 324.93 276.13 324.93 275.85 324.80 275.62
  L 311.79 252.24"
/>
<path stroke="#f5bba7" vector-effect="non-scaling-stroke" d="
  M 328.71 246.75
  C 341.46 227.00 300.97 219.64 296.43 237.17
  C 294.06 246.30 303.86 252.13 311.79 252.24"
/>
<path stroke="#978977" vector-effect="non-scaling-stroke" d="
  M 145.72 203.98
  C 124.54 211.94 130.00 241.28 152.22 242.51
  C 152.59 242.53 152.87 242.18 152.77 241.83
  C 150.46 233.49 149.24 223.67 148.10 216.80
  C 147.42 212.65 146.80 208.48 146.25 204.31
  C 146.22 204.05 145.96 203.89 145.72 203.98"
/>
<path stroke="#978977" vector-effect="non-scaling-stroke" d="
  M 365.83 203.99
  C 364.33 216.69 362.59 229.67 359.50 242.01
  C 359.43 242.28 359.64 242.53 359.92 242.51
  C 382.42 240.80 387.73 211.20 366.14 203.80
  C 366.00 203.75 365.85 203.84 365.83 203.99"
/>
<path stroke="#627b83" vector-effect="non-scaling-stroke" d="
  M 340.03 259.69
  L 320.35 249.27
  C 319.89 249.03 319.33 249.10 318.95 249.45
  C 317.27 250.97 318.24 251.33 319.01 252.73
  C 322.24 258.60 325.56 264.62 328.95 270.79
  C 329.10 271.07 329.49 271.13 329.72 270.90
  L 340.15 260.48
  C 340.39 260.24 340.33 259.84 340.03 259.69"
/>
<path stroke="#627b83" vector-effect="non-scaling-stroke" d="
  M 356.99 262.30
  L 352.22 259.79
  C 351.15 259.22 350.11 259.43 349.10 260.41
  C 343.38 265.98 337.83 271.49 332.44 276.94
  C 330.91 278.49 329.90 279.85 329.42 281.02
  C 329.29 281.34 329.29 281.69 329.42 281.97
  L 332.04 287.48
  C 332.13 287.68 332.40 287.72 332.57 287.55
  L 357.08 263.05
  C 357.31 262.82 357.26 262.44 356.99 262.30"
/>
<path stroke="#61554d" vector-effect="non-scaling-stroke" d="
  M 332.64 301.65
  C 335.78 304.61 338.76 307.89 342.09 311.06
  C 342.30 311.25 342.62 311.25 342.82 311.05
  L 380.30 273.57
  C 380.55 273.33 380.55 272.93 380.30 272.68
  L 370.18 262.55
  C 368.99 261.36 367.79 261.36 366.58 262.53
  C 355.77 273.06 344.90 283.85 333.98 294.89
  C 331.81 297.08 329.69 298.87 332.64 301.65"
/>
<path stroke="#935052" vector-effect="non-scaling-stroke" d="
  M 269.54 435.25
  C 269.23 437.24 268.05 438.23 266.00 438.23
  C 235.50 438.24 204.77 438.25 173.81 438.25
  C 173.50 438.25 173.25 438.50 173.25 438.81
  L 173.25 475.48
  C 173.25 475.77 173.48 476.00 173.77 476.00
  L 338.44 476.00
  C 338.75 476.00 339.00 475.75 339.00 475.44
  L 339.00 438.75
  C 339.00 438.47 338.78 438.25 338.50 438.25
  C 323.75 438.25 309.00 438.22 294.25 438.17
  C 292.08 438.16 290.90 437.11 290.71 435.00"
/>
<path stroke="#988978" vector-effect="non-scaling-stroke" d="
  M 290.71 435.00
  C 291.50 431.84 293.38 432.24 296.01 432.25
  C 311.56 432.34 326.83 432.28 341.80 432.07
  C 344.10 432.04 345.25 433.18 345.25 435.48
  L 345.25 475.12
  C 345.25 475.61 345.64 476.00 346.13 476.00
  L 356.98 475.98"
/>
<path stroke="#8c7e6c" vector-effect="non-scaling-stroke" d="
  M 356.98 475.98
  L 388.44 476.00
  C 388.75 476.00 389.00 475.75 389.00 475.44
  C 389.00 459.23 388.98 443.25 388.95 427.50
  C 388.88 394.77 365.08 370.01 332.75 368.50
  C 322.96 368.05 313.77 368.11 305.20 368.68"
/>
<path stroke="#988978" vector-effect="non-scaling-stroke" d="
  M 305.20 368.68
  L 289.54 368.44
  C 288.03 368.41 287.27 367.69 287.25 366.27
  L 287.01 348.12
  C 287.00 347.67 286.81 347.56 286.44 347.79
  C 265.75 360.46 246.24 359.49 225.67 347.20
  C 225.38 347.03 225.23 347.11 225.24 347.45
  C 225.34 353.40 225.28 359.13 225.07 364.64
  C 224.94 367.90 223.84 368.59 220.75 368.50
  C 214.62 368.33 203.78 368.36 188.25 368.59
  C 179.01 368.72 172.38 369.24 168.36 370.15
  C 146.37 375.13 128.77 392.76 124.59 414.83
  C 123.86 418.68 123.50 425.32 123.49 434.75
  C 123.48 448.31 123.50 461.87 123.56 475.44
  C 123.56 475.72 123.78 475.94 124.06 475.94
  L 166.44 476.00
  C 166.75 476.00 167.00 475.75 167.00 475.44
  C 166.97 461.99 166.99 448.76 167.05 435.74
  C 167.07 431.65 169.47 432.18 172.44 432.19
  C 223.21 432.30 254.32 432.32 265.75 432.25
  C 268.07 432.24 269.33 433.24 269.54 435.25"
/>
<path stroke="#ead6b9" vector-effect="non-scaling-stroke" d="
  M 305.20 368.68
  C 318.60 370.62 329.97 376.04 339.31 384.94
  C 352.40 397.41 356.42 411.65 356.58 429.59
  C 356.72 445.04 356.85 460.51 356.98 475.98"
/>
<path stroke="#f0a8a0" vector-effect="non-scaling-stroke" d="
  M 290.71 435.00
  L 269.54 435.25"
/>
<path stroke="#898941" vector-effect="non-scaling-stroke" d="
  M 449.73 400.25
  C 464.84 418.57 487.41 393.79 469.46 380.36
  C 469.23 380.19 468.91 380.21 468.70 380.42
  L 449.77 399.36
  C 449.53 399.60 449.51 399.99 449.73 400.25"
/>
<path stroke="#898941" vector-effect="non-scaling-stroke" d="
  M 111.59 79.35
  C 104.63 75.35 99.41 69.83 95.93 62.80
  C 95.72 62.38 95.52 62.38 95.32 62.80
  C 92.07 69.67 86.87 74.91 79.74 78.51
  C 79.42 78.67 79.41 78.84 79.72 79.03
  C 86.13 82.94 90.89 88.54 93.99 95.85
  C 94.21 96.36 94.47 96.39 94.77 95.92
  C 99.14 89.09 104.74 83.86 111.58 80.23
  C 112.11 79.94 112.12 79.65 111.59 79.35"
/>
<path stroke="#898941" vector-effect="non-scaling-stroke" d="
  M 42.84 105.32
  C 46.42 108.26 49.14 111.57 51.01 115.26
  C 51.12 115.48 51.43 115.51 51.57 115.30
  C 53.97 111.79 57.21 108.72 61.28 106.10
  C 61.49 105.96 61.51 105.66 61.31 105.50
  C 57.55 102.46 54.54 99.26 52.27 95.91
  C 52.14 95.72 51.86 95.73 51.74 95.92
  C 49.51 99.54 46.55 102.47 42.88 104.72
  C 42.66 104.85 42.64 105.16 42.84 105.32"
/>
<path stroke="#978977" vector-effect="non-scaling-stroke" d="
  M 229.2296 210.3384
  C 229.28 204.90 224.78 200.46 219.1859 200.4104
  C 213.59 200.36 209.02 204.73 208.9704 210.1616
  C 208.92 215.60 213.42 220.04 219.0141 220.0896
  C 224.61 220.14 229.18 215.77 229.2296 210.3384"
/>
<path stroke="#978977" vector-effect="non-scaling-stroke" d="
  M 303.2438 209.8865
  C 303.05 204.46 298.37 200.21 292.7766 200.4060
  C 287.19 200.60 282.81 205.16 282.9962 210.5935
  C 283.19 216.02 287.87 220.27 293.4634 220.0740
  C 299.05 219.88 303.43 215.32 303.2438 209.8865"
/>
<path stroke="#f5bba7" vector-effect="non-scaling-stroke" d="
  M 216.1799 239.8813
  C 216.20 232.88 208.37 227.18 198.6742 227.1501
  C 188.98 227.12 181.10 232.76 181.0801 239.7587
  C 181.06 246.76 188.89 252.46 198.5858 252.4899
  C 208.28 252.52 216.16 246.88 216.1799 239.8813"
/>
<path stroke="#978977" vector-effect="non-scaling-stroke" d="
  M 286.08 274.01
  C 283.29 272.97 282.48 275.25 281.34 277.23
  C 277.21 284.36 271.04 288.71 262.81 290.29
  C 248.47 293.04 237.74 288.56 230.63 276.84
  C 229.28 274.62 227.70 272.05 225.03 274.61
  C 224.06 275.54 223.88 276.60 224.49 277.79
  C 231.06 290.80 241.73 297.21 256.50 297.04
  C 269.48 296.88 282.45 290.08 287.69 277.76
  C 288.46 275.95 287.93 274.70 286.08 274.01"
/>
<path stroke="#898941" vector-effect="non-scaling-stroke" d="
  M 406.3490 335.7970
  C 411.50 330.64 411.50 322.28 406.3490 317.1294
  L 390.9906 301.7710
  C 385.84 296.62 377.48 296.62 372.3230 301.7710
  L 371.5310 302.5630
  C 366.38 307.72 366.38 316.08 371.5310 321.2306
  L 386.8894 336.5890
  C 392.04 341.74 400.40 341.74 405.5570 336.5890
  L 406.3490 335.7970"
/>
<path stroke="#978977" vector-effect="non-scaling-stroke" d="
  M 387.0096 306.1763
  C 384.05 303.21 379.24 303.21 376.2757 306.1763
  L 375.9363 306.5157
  C 372.97 309.48 372.97 314.29 375.9363 317.2496
  L 390.8704 332.1837
  C 393.83 335.15 398.64 335.15 401.6043 332.1837
  L 401.9437 331.8443
  C 404.91 328.88 404.91 324.07 401.9437 321.1104
  L 387.0096 306.1763"
/>
<path stroke="#978977" vector-effect="non-scaling-stroke" d="
  M 386.30 311.50
  C 386.30 308.72 384.04 306.46 381.26 306.46
  C 378.48 306.46 376.22 308.72 376.22 311.50
  C 376.22 314.28 378.48 316.54 381.26 316.54
  C 384.04 316.54 386.30 314.28 386.30 311.50"
/>
<path stroke="#978977" vector-effect="non-scaling-stroke" d="
  M 401.65 326.84
  C 401.65 324.07 399.40 321.82 396.63 321.82
  C 393.86 321.82 391.61 324.07 391.61 326.84
  C 391.61 329.61 393.86 331.86 396.63 331.86
  C 399.40 331.86 401.65 329.61 401.65 326.84"
/>
</g>
<path fill="#3a312a" d="
  M 54.41 32.62
  C 57.01 39.52 61.37 46.96 68.87 48.52
  C 72.81 49.34 75.73 52.50 70.56 54.76
  C 63.51 57.84 56.11 62.56 54.51 70.75
  C 53.95 73.60 52.74 76.26 49.46 73.98
  C 49.21 73.81 49.02 73.53 48.92 73.20
  C 46.24 64.36 42.46 55.84 32.24 54.75
  C 31.24 54.64 30.44 53.87 30.30 52.87
  C 29.82 49.33 31.91 49.27 34.49 48.56
  C 42.24 46.41 46.90 41.46 48.46 33.72
  C 49.26 29.74 52.74 28.19 54.41 32.62
  Z
  M 42.80 52.01
  C 46.09 54.61 48.75 57.79 50.80 61.56
  C 50.98 61.88 51.42 61.92 51.65 61.63
  C 54.64 57.91 57.93 54.93 61.52 52.68
  C 61.73 52.55 61.73 52.26 61.53 52.12
  C 57.65 49.59 54.69 46.45 52.65 42.71
  C 52.45 42.34 51.92 42.32 51.70 42.68
  C 49.51 46.17 46.55 49.08 42.84 51.42
  C 42.63 51.55 42.61 51.85 42.80 52.01
  Z"
/>
<path fill="#3a312a" d="
  M 400.21 288.25
  C 398.32 289.11 396.96 289.05 395.35 287.55
  C 392.18 284.60 388.93 281.40 385.59 277.94
  C 385.28 277.62 384.76 277.61 384.45 277.93
  L 347.00 315.50
  C 346.86 315.64 346.86 315.86 347.00 316.00
  C 361.84 330.66 376.58 345.42 391.21 360.29
  C 406.30 375.62 423.76 387.54 443.61 396.05
  C 443.91 396.18 444.26 396.11 444.50 395.88
  L 465.00 375.38
  C 465.40 374.98 465.51 374.36 465.28 373.84
  C 454.97 350.71 440.62 331.50 421.81 314.19
  C 419.95 312.48 419.51 310.59 420.50 308.54
  C 422.31 307.57 423.70 307.57 424.69 308.56
  C 428.82 312.69 432.91 316.85 436.96 321.04
  C 451.84 336.41 463.46 353.96 471.81 373.69
  C 472.06 374.29 473.34 375.68 475.63 377.87
  C 495.70 397.10 465.66 426.73 446.40 405.59
  C 444.76 403.80 442.84 402.42 440.63 401.45
  C 422.76 393.64 406.77 383.15 392.67 369.98
  C 392.02 369.37 387.30 364.67 378.49 355.86
  C 362.03 339.40 345.58 323.04 329.15 306.77
  C 328.89 306.52 328.47 306.56 328.27 306.86
  C 318.54 321.01 306.93 333.14 293.46 343.26
  C 293.20 343.46 293.05 343.76 293.05 344.07
  L 293.06 361.73
  C 293.06 362.16 293.42 362.52 293.85 362.51
  C 303.82 362.44 313.54 362.47 323.01 362.59
  C 332.17 362.70 338.81 363.14 342.93 363.90
  C 366.87 368.30 387.05 386.62 392.94 410.64
  C 393.97 414.83 394.53 420.94 394.62 428.99
  C 394.80 444.08 394.85 459.18 394.76 474.27
  C 394.73 480.34 395.35 482.00 388.73 482.00
  C 299.87 482.00 211.01 482.00 122.16 482.00
  C 117.36 482.00 117.50 480.08 117.50 476.14
  C 117.50 459.09 117.50 442.05 117.50 425.00
  C 117.50 391.45 145.51 363.78 179.00 362.78
  C 192.23 362.39 205.32 362.35 218.29 362.68
  C 218.82 362.69 219.25 362.27 219.25 361.74
  L 219.25 344.35
  C 219.25 343.48 218.85 342.66 218.16 342.13
  C 188.49 319.20 166.70 284.19 154.91 248.98
  C 154.81 248.69 154.53 248.49 154.23 248.50
  C 123.16 249.09 115.37 207.43 145.09 197.71
  C 145.37 197.62 145.57 197.36 145.58 197.06
  C 145.73 191.71 145.69 186.35 145.44 181.00
  C 143.72 143.86 160.55 110.38 190.57 88.54
  C 190.97 88.25 191.22 87.81 191.28 87.33
  C 193.89 64.47 208.22 44.80 229.34 35.61
  C 269.57 18.10 315.75 43.58 320.76 87.44
  C 320.80 87.76 320.96 88.05 321.22 88.23
  C 351.60 110.35 367.89 143.90 366.36 181.49
  C 366.17 186.08 366.15 191.03 366.28 196.35
  C 366.29 196.97 366.69 197.52 367.28 197.74
  C 396.64 208.45 389.06 248.63 358.32 248.57
  C 357.97 248.57 357.67 248.74 357.59 249.00
  L 355.90 254.19
  C 355.81 254.46 355.95 254.78 356.25 254.95
  L 361.29 257.75
  C 361.61 257.92 362.00 257.92 362.32 257.74
  C 369.27 253.76 372.47 256.07 377.75 261.40
  C 385.24 268.95 392.72 276.50 400.19 284.06
  C 401.10 284.98 401.10 286.38 400.21 288.25
  Z
  M 313.79 82.45
  C 299.95 20.53 211.58 20.98 197.98 83.24
  C 197.90 83.61 198.02 83.70 198.35 83.51
  C 234.49 62.81 276.97 62.13 313.07 82.98
  C 313.72 83.35 313.96 83.18 313.79 82.45
  Z
  M 329.19 103.04
  C 271.62 49.09 176.02 73.15 154.53 150.21
  C 154.26 151.15 154.37 151.27 154.85 150.57
  C 155.73 149.27 156.40 146.59 157.25 145.03
  C 190.79 83.85 266.58 67.75 323.17 108.12
  C 323.47 108.33 323.88 108.32 324.16 108.08
  L 329.16 103.94
  C 329.44 103.71 329.45 103.29 329.19 103.04
  Z
  M 267.37 131.71
  C 284.65 126.96 287.99 103.31 272.21 94.83
  C 269.14 93.18 264.52 92.27 258.37 92.12
  C 197.50 90.56 147.90 139.53 152.00 201.45
  C 152.08 202.70 152.35 202.74 152.81 201.58
  C 169.49 159.22 209.76 133.11 255.07 132.45
  C 261.84 132.35 265.94 132.10 267.37 131.71
  Z
  M 282.85 96.22
  C 292.65 108.21 289.08 125.49 276.65 134.01
  C 276.35 134.21 276.38 134.34 276.73 134.40
  C 314.35 141.33 345.50 166.29 359.19 202.07
  C 359.50 202.88 359.69 202.85 359.77 201.99
  C 364.46 151.70 331.04 108.89 283.39 95.40
  C 282.34 95.10 282.16 95.37 282.85 96.22
  Z
  M 356.29 148.50
  C 357.81 152.40 357.95 152.40 356.71 148.50
  C 352.54 133.25 345.07 119.90 334.28 108.43
  C 334.08 108.21 333.75 108.18 333.53 108.35
  L 329.13 111.94
  C 328.86 112.15 328.86 112.56 329.13 112.80
  C 340.68 123.05 349.73 134.95 356.29 148.50
  Z
  M 278.23 140.77
  C 230.67 131.79 182.55 152.37 161.52 196.99
  C 161.38 197.29 161.47 197.38 161.79 197.27
  C 202.36 182.60 241.22 163.99 278.35 141.44
  C 278.89 141.11 278.85 140.88 278.23 140.77
  Z
  M 348.46 192.99
  C 336.09 169.17 314.09 151.67 288.41 143.39
  C 287.60 143.13 286.73 143.24 286.03 143.68
  L 279.95 147.56
  C 279.67 147.74 279.65 148.15 279.91 148.36
  C 301.33 165.69 324.11 180.64 348.24 193.21
  C 348.54 193.36 348.61 193.29 348.46 192.99
  Z
  M 311.79 252.24
  C 309.66 248.77 313.71 246.17 315.78 243.80
  C 318.90 240.20 324.29 244.63 328.71 246.75
  L 344.76 255.36
  C 345.03 255.50 345.42 255.48 345.79 255.29
  L 349.02 253.65
  C 349.35 253.48 349.59 253.26 349.68 253.03
  C 353.30 243.35 355.74 233.40 356.99 223.19
  C 357.92 215.57 356.18 209.36 352.91 202.75
  C 352.77 202.46 352.53 202.23 352.24 202.09
  C 324.63 188.26 298.68 171.44 274.41 151.64
  C 274.08 151.37 273.62 151.33 273.25 151.55
  C 236.80 172.95 198.82 190.62 159.29 204.56
  C 158.58 204.81 158.01 205.34 157.70 206.03
  C 153.68 215.12 154.46 220.90 156.54 231.36
  C 163.16 264.62 181.86 296.90 204.61 321.65
  C 215.24 333.22 229.23 344.69 244.06 349.19
  C 276.21 358.95 309.05 325.29 324.72 301.42
  C 324.89 301.16 324.98 300.84 324.95 300.51
  C 324.77 298.05 325.50 295.50 327.15 292.87
  C 327.42 292.44 327.44 291.90 327.22 291.45
  C 324.74 286.41 321.34 282.01 324.79 276.36
  C 324.93 276.13 324.93 275.85 324.80 275.62
  L 311.79 252.24
  Z
  M 145.72 203.98
  C 124.54 211.94 130.00 241.28 152.22 242.51
  C 152.59 242.53 152.87 242.18 152.77 241.83
  C 150.46 233.49 149.24 223.67 148.10 216.80
  C 147.42 212.65 146.80 208.48 146.25 204.31
  C 146.22 204.05 145.96 203.89 145.72 203.98
  Z
  M 365.83 203.99
  C 364.33 216.69 362.59 229.67 359.50 242.01
  C 359.43 242.28 359.64 242.53 359.92 242.51
  C 382.42 240.80 387.73 211.20 366.14 203.80
  C 366.00 203.75 365.85 203.84 365.83 203.99
  Z
  M 340.03 259.69
  L 320.35 249.27
  C 319.89 249.03 319.33 249.10 318.95 249.45
  C 317.27 250.97 318.24 251.33 319.01 252.73
  C 322.24 258.60 325.56 264.62 328.95 270.79
  C 329.10 271.07 329.49 271.13 329.72 270.90
  L 340.15 260.48
  C 340.39 260.24 340.33 259.84 340.03 259.69
  Z
  M 356.99 262.30
  L 352.22 259.79
  C 351.15 259.22 350.11 259.43 349.10 260.41
  C 343.38 265.98 337.83 271.49 332.44 276.94
  C 330.91 278.49 329.90 279.85 329.42 281.02
  C 329.29 281.34 329.29 281.69 329.42 281.97
  L 332.04 287.48
  C 332.13 287.68 332.40 287.72 332.57 287.55
  L 357.08 263.05
  C 357.31 262.82 357.26 262.44 356.99 262.30
  Z
  M 332.64 301.65
  C 335.78 304.61 338.76 307.89 342.09 311.06
  C 342.30 311.25 342.62 311.25 342.82 311.05
  L 380.30 273.57
  C 380.55 273.33 380.55 272.93 380.30 272.68
  L 370.18 262.55
  C 368.99 261.36 367.79 261.36 366.58 262.53
  C 355.77 273.06 344.90 283.85 333.98 294.89
  C 331.81 297.08 329.69 298.87 332.64 301.65
  Z
  M 269.54 435.25
  C 269.23 437.24 268.05 438.23 266.00 438.23
  C 235.50 438.24 204.77 438.25 173.81 438.25
  C 173.50 438.25 173.25 438.50 173.25 438.81
  L 173.25 475.48
  C 173.25 475.77 173.48 476.00 173.77 476.00
  L 338.44 476.00
  C 338.75 476.00 339.00 475.75 339.00 475.44
  L 339.00 438.75
  C 339.00 438.47 338.78 438.25 338.50 438.25
  C 323.75 438.25 309.00 438.22 294.25 438.17
  C 292.08 438.16 290.90 437.11 290.71 435.00
  C 291.50 431.84 293.38 432.24 296.01 432.25
  C 311.56 432.34 326.83 432.28 341.80 432.07
  C 344.10 432.04 345.25 433.18 345.25 435.48
  L 345.25 475.12
  C 345.25 475.61 345.64 476.00 346.13 476.00
  L 356.98 475.98
  L 388.44 476.00
  C 388.75 476.00 389.00 475.75 389.00 475.44
  C 389.00 459.23 388.98 443.25 388.95 427.50
  C 388.88 394.77 365.08 370.01 332.75 368.50
  C 322.96 368.05 313.77 368.11 305.20 368.68
  L 289.54 368.44
  C 288.03 368.41 287.27 367.69 287.25 366.27
  L 287.01 348.12
  C 287.00 347.67 286.81 347.56 286.44 347.79
  C 265.75 360.46 246.24 359.49 225.67 347.20
  C 225.38 347.03 225.23 347.11 225.24 347.45
  C 225.34 353.40 225.28 359.13 225.07 364.64
  C 224.94 367.90 223.84 368.59 220.75 368.50
  C 214.62 368.33 203.78 368.36 188.25 368.59
  C 179.01 368.72 172.38 369.24 168.36 370.15
  C 146.37 375.13 128.77 392.76 124.59 414.83
  C 123.86 418.68 123.50 425.32 123.49 434.75
  C 123.48 448.31 123.50 461.87 123.56 475.44
  C 123.56 475.72 123.78 475.94 124.06 475.94
  L 166.44 476.00
  C 166.75 476.00 167.00 475.75 167.00 475.44
  C 166.97 461.99 166.99 448.76 167.05 435.74
  C 167.07 431.65 169.47 432.18 172.44 432.19
  C 223.21 432.30 254.32 432.32 265.75 432.25
  C 268.07 432.24 269.33 433.24 269.54 435.25
  Z
  M 449.73 400.25
  C 464.84 418.57 487.41 393.79 469.46 380.36
  C 469.23 380.19 468.91 380.21 468.70 380.42
  L 449.77 399.36
  C 449.53 399.60 449.51 399.99 449.73 400.25
  Z"
/>
<path fill="#87796f" d="
  M 197.98 83.24
  C 211.58 20.98 299.95 20.53 313.79 82.45
  C 313.96 83.18 313.72 83.35 313.07 82.98
  C 276.97 62.13 234.49 62.81 198.35 83.51
  C 198.02 83.70 197.90 83.61 197.98 83.24
  Z"
/>
<path fill="#d7e057" d="
  M 42.80 52.01
  C 42.61 51.85 42.63 51.55 42.84 51.42
  C 46.55 49.08 49.51 46.17 51.70 42.68
  C 51.92 42.32 52.45 42.34 52.65 42.71
  C 54.69 46.45 57.65 49.59 61.53 52.12
  C 61.73 52.26 61.73 52.55 61.52 52.68
  C 57.93 54.93 54.64 57.91 51.65 61.63
  C 51.42 61.92 50.98 61.88 50.80 61.56
  C 48.75 57.79 46.09 54.61 42.80 52.01
  Z"
/>
<path fill="#3a312a" d="
  M 123.93 77.55
  C 125.05 79.27 123.79 80.92 122.05 81.65
  C 111.03 86.28 99.60 93.78 97.71 106.43
  C 96.98 111.36 92.96 111.66 91.62 106.79
  C 88.52 95.50 82.25 84.00 69.45 82.17
  C 67.26 81.86 64.90 80.45 66.17 78.06
  C 66.74 76.97 67.63 76.29 68.84 76.02
  C 81.47 73.14 89.24 65.19 92.16 52.17
  C 92.41 51.03 93.02 50.13 93.98 49.46
  C 95.36 48.50 97.29 50.44 97.87 51.97
  C 102.26 63.63 108.05 73.37 121.25 76.15
  C 122.62 76.44 123.51 76.90 123.93 77.55
  Z
  M 111.59 79.35
  C 104.63 75.35 99.41 69.83 95.93 62.80
  C 95.72 62.38 95.52 62.38 95.32 62.80
  C 92.07 69.67 86.87 74.91 79.74 78.51
  C 79.42 78.67 79.41 78.84 79.72 79.03
  C 86.13 82.94 90.89 88.54 93.99 95.85
  C 94.21 96.36 94.47 96.39 94.77 95.92
  C 99.14 89.09 104.74 83.86 111.58 80.23
  C 112.11 79.94 112.12 79.65 111.59 79.35
  Z"
/>
<path fill="#d7e057" d="
  M 111.59 79.35
  C 112.12 79.65 112.11 79.94 111.58 80.23
  C 104.74 83.86 99.14 89.09 94.77 95.92
  C 94.47 96.39 94.21 96.36 93.99 95.85
  C 90.89 88.54 86.13 82.94 79.72 79.03
  C 79.41 78.84 79.42 78.67 79.74 78.51
  C 86.87 74.91 92.07 69.67 95.32 62.80
  C 95.52 62.38 95.72 62.38 95.93 62.80
  C 99.41 69.83 104.63 75.35 111.59 79.35
  Z"
/>
<path fill="#87796f" d="
  M 329.19 103.04
  C 329.45 103.29 329.44 103.71 329.16 103.94
  L 324.16 108.08
  C 323.88 108.32 323.47 108.33 323.17 108.12
  C 266.58 67.75 190.79 83.85 157.25 145.03
  C 156.40 146.59 155.73 149.27 154.85 150.57
  C 154.37 151.27 154.26 151.15 154.53 150.21
  C 176.02 73.15 271.62 49.09 329.19 103.04
  Z"
/>
<path fill="#3a312a" d="
  M 72.62 103.47
  C 74.21 105.32 72.57 107.13 70.71 107.97
  C 61.86 111.95 56.34 115.81 53.89 126.37
  C 53.77 126.89 53.42 127.32 52.94 127.55
  C 49.59 129.17 48.64 126.54 47.92 123.79
  C 45.79 115.75 41.14 109.38 32.54 108.11
  C 31.69 107.99 30.96 107.44 30.59 106.66
  C 29.08 103.44 31.74 102.56 34.34 101.88
  C 42.23 99.80 46.96 94.76 48.53 86.75
  C 49.31 82.81 52.89 81.84 54.39 85.82
  C 57.22 93.30 61.31 100.26 69.65 102.14
  C 71.16 102.47 72.15 102.92 72.62 103.47
  Z
  M 42.84 105.32
  C 46.42 108.26 49.14 111.57 51.01 115.26
  C 51.12 115.48 51.43 115.51 51.57 115.30
  C 53.97 111.79 57.21 108.72 61.28 106.10
  C 61.49 105.96 61.51 105.66 61.31 105.50
  C 57.55 102.46 54.54 99.26 52.27 95.91
  C 52.14 95.72 51.86 95.73 51.74 95.92
  C 49.51 99.54 46.55 102.47 42.88 104.72
  C 42.66 104.85 42.64 105.16 42.84 105.32
  Z"
/>
<path fill="#e96c7a" d="
  M 272.21 94.83
  C 287.99 103.31 284.65 126.96 267.37 131.71
  C 265.94 132.10 261.84 132.35 255.07 132.45
  C 209.76 133.11 169.49 159.22 152.81 201.58
  C 152.35 202.74 152.08 202.70 152.00 201.45
  C 147.90 139.53 197.50 90.56 258.37 92.12
  C 264.52 92.27 269.14 93.18 272.21 94.83
  Z"
/>
<path fill="#e96c7a" d="
  M 276.65 134.01
  C 289.08 125.49 292.65 108.21 282.85 96.22
  C 282.16 95.37 282.34 95.10 283.39 95.40
  C 331.04 108.89 364.46 151.70 359.77 201.99
  C 359.69 202.85 359.50 202.88 359.19 202.07
  C 345.50 166.29 314.35 141.33 276.73 134.40
  C 276.38 134.34 276.35 134.21 276.65 134.01
  Z"
/>
<path fill="#d7e057" d="
  M 42.84 105.32
  C 42.64 105.16 42.66 104.85 42.88 104.72
  C 46.55 102.47 49.51 99.54 51.74 95.92
  C 51.86 95.73 52.14 95.72 52.27 95.91
  C 54.54 99.26 57.55 102.46 61.31 105.50
  C 61.51 105.66 61.49 105.96 61.28 106.10
  C 57.21 108.72 53.97 111.79 51.57 115.30
  C 51.43 115.51 51.12 115.48 51.01 115.26
  C 49.14 111.57 46.42 108.26 42.84 105.32
  Z"
/>
<path fill="#87796f" d="
  M 356.71 148.50
  L 356.29 148.50
  C 349.73 134.95 340.68 123.05 329.13 112.80
  C 328.86 112.56 328.86 112.15 329.13 111.94
  L 333.53 108.35
  C 333.75 108.18 334.08 108.21 334.28 108.43
  C 345.07 119.90 352.54 133.25 356.71 148.50
  Z"
/>
<path fill="#87796f" d="
  M 278.23 140.77
  C 278.85 140.88 278.89 141.11 278.35 141.44
  C 241.22 163.99 202.36 182.60 161.79 197.27
  C 161.47 197.38 161.38 197.29 161.52 196.99
  C 182.55 152.37 230.67 131.79 278.23 140.77
  Z"
/>
<path fill="#87796f" d="
  M 288.41 143.39
  C 314.09 151.67 336.09 169.17 348.46 192.99
  C 348.61 193.29 348.54 193.36 348.24 193.21
  C 324.11 180.64 301.33 165.69 279.91 148.36
  C 279.65 148.15 279.67 147.74 279.95 147.56
  L 286.03 143.68
  C 286.73 143.24 287.60 143.13 288.41 143.39
  Z"
/>
<path fill="#3a312a" d="
  M 356.29 148.50
  L 356.71 148.50
  C 357.95 152.40 357.81 152.40 356.29 148.50
  Z"
/>
<path fill="#f4e0c4" d="
  M 328.71 246.75
  C 341.46 227.00 300.97 219.64 296.43 237.17
  C 294.06 246.30 303.86 252.13 311.79 252.24
  L 324.80 275.62
  C 324.93 275.85 324.93 276.13 324.79 276.36
  C 321.34 282.01 324.74 286.41 327.22 291.45
  C 327.44 291.90 327.42 292.44 327.15 292.87
  C 325.50 295.50 324.77 298.05 324.95 300.51
  C 324.98 300.84 324.89 301.16 324.72 301.42
  C 309.05 325.29 276.21 358.95 244.06 349.19
  C 229.23 344.69 215.24 333.22 204.61 321.65
  C 181.86 296.90 163.16 264.62 156.54 231.36
  C 154.46 220.90 153.68 215.12 157.70 206.03
  C 158.01 205.34 158.58 204.81 159.29 204.56
  C 198.82 190.62 236.80 172.95 273.25 151.55
  C 273.62 151.33 274.08 151.37 274.41 151.64
  C 298.68 171.44 324.63 188.26 352.24 202.09
  C 352.53 202.23 352.77 202.46 352.91 202.75
  C 356.18 209.36 357.92 215.57 356.99 223.19
  C 355.74 233.40 353.30 243.35 349.68 253.03
  C 349.59 253.26 349.35 253.48 349.02 253.65
  L 345.79 255.29
  C 345.42 255.48 345.03 255.50 344.76 255.36
  L 328.71 246.75
  Z
  M 229.2296 210.3384
  C 229.28 204.90 224.78 200.46 219.1859 200.4104
  C 213.59 200.36 209.02 204.73 208.9704 210.1616
  C 208.92 215.60 213.42 220.04 219.0141 220.0896
  C 224.61 220.14 229.18 215.77 229.2296 210.3384
  Z
  M 303.2438 209.8865
  C 303.05 204.46 298.37 200.21 292.7766 200.4060
  C 287.19 200.60 282.81 205.16 282.9962 210.5935
  C 283.19 216.02 287.87 220.27 293.4634 220.0740
  C 299.05 219.88 303.43 215.32 303.2438 209.8865
  Z
  M 216.1799 239.8813
  C 216.20 232.88 208.37 227.18 198.6742 227.1501
  C 188.98 227.12 181.10 232.76 181.0801 239.7587
  C 181.06 246.76 188.89 252.46 198.5858 252.4899
  C 208.28 252.52 216.16 246.88 216.1799 239.8813
  Z
  M 286.08 274.01
  C 283.29 272.97 282.48 275.25 281.34 277.23
  C 277.21 284.36 271.04 288.71 262.81 290.29
  C 248.47 293.04 237.74 288.56 230.63 276.84
  C 229.28 274.62 227.70 272.05 225.03 274.61
  C 224.06 275.54 223.88 276.60 224.49 277.79
  C 231.06 290.80 241.73 297.21 256.50 297.04
  C 269.48 296.88 282.45 290.08 287.69 277.76
  C 288.46 275.95 287.93 274.70 286.08 274.01
  Z"
/>
<ellipse fill="#3a312a" cx="0.00" cy="0.00" transform="translate(219.10,210.25) rotate(0.5)" rx="10.13" ry="9.84"/>
<ellipse fill="#3a312a" cx="0.00" cy="0.00" transform="translate(293.12,210.24) rotate(-2.0)" rx="10.13" ry="9.84"/>
<path fill="#f4e0c4" d="
  M 152.22 242.51
  C 130.00 241.28 124.54 211.94 145.72 203.98
  C 145.96 203.89 146.22 204.05 146.25 204.31
  C 146.80 208.48 147.42 212.65 148.10 216.80
  C 149.24 223.67 150.46 233.49 152.77 241.83
  C 152.87 242.18 152.59 242.53 152.22 242.51
  Z"
/>
<path fill="#f4e0c4" d="
  M 365.83 203.99
  C 365.85 203.84 366.00 203.75 366.14 203.80
  C 387.73 211.20 382.42 240.80 359.92 242.51
  C 359.64 242.53 359.43 242.28 359.50 242.01
  C 362.59 229.67 364.33 216.69 365.83 203.99
  Z"
/>
<ellipse fill="#f59689" cx="0.00" cy="0.00" transform="translate(198.63,239.82) rotate(0.2)" rx="17.55" ry="12.67"/>
<path fill="#f59689" d="
  M 328.71 246.75
  C 324.29 244.63 318.90 240.20 315.78 243.80
  C 313.71 246.17 309.66 248.77 311.79 252.24
  C 303.86 252.13 294.06 246.30 296.43 237.17
  C 300.97 219.64 341.46 227.00 328.71 246.75
  Z"
/>
<path fill="#8ac5dc" d="
  M 340.03 259.69
  C 340.33 259.84 340.39 260.24 340.15 260.48
  L 329.72 270.90
  C 329.49 271.13 329.10 271.07 328.95 270.79
  C 325.56 264.62 322.24 258.60 319.01 252.73
  C 318.24 251.33 317.27 250.97 318.95 249.45
  C 319.33 249.10 319.89 249.03 320.35 249.27
  L 340.03 259.69
  Z"
/>
<path fill="#8ac5dc" d="
  M 356.99 262.30
  C 357.26 262.44 357.31 262.82 357.08 263.05
  L 332.57 287.55
  C 332.40 287.72 332.13 287.68 332.04 287.48
  L 329.42 281.97
  C 329.29 281.69 329.29 281.34 329.42 281.02
  C 329.90 279.85 330.91 278.49 332.44 276.94
  C 337.83 271.49 343.38 265.98 349.10 260.41
  C 350.11 259.43 351.15 259.22 352.22 259.79
  L 356.99 262.30
  Z"
/>
<path fill="#87796f" d="
  M 332.64 301.65
  C 329.69 298.87 331.81 297.08 333.98 294.89
  C 344.90 283.85 355.77 273.06 366.58 262.53
  C 367.79 261.36 368.99 261.36 370.18 262.55
  L 380.30 272.68
  C 380.55 272.93 380.55 273.33 380.30 273.57
  L 342.82 311.05
  C 342.62 311.25 342.30 311.25 342.09 311.06
  C 338.76 307.89 335.78 304.61 332.64 301.65
  Z"
/>
<path fill="#3a312a" d="
  M 286.08 274.01
  C 287.93 274.70 288.46 275.95 287.69 277.76
  C 282.45 290.08 269.48 296.88 256.50 297.04
  C 241.73 297.21 231.06 290.80 224.49 277.79
  C 223.88 276.60 224.06 275.54 225.03 274.61
  C 227.70 272.05 229.28 274.62 230.63 276.84
  C 237.74 288.56 248.47 293.04 262.81 290.29
  C 271.04 288.71 277.21 284.36 281.34 277.23
  C 282.48 275.25 283.29 272.97 286.08 274.01
  Z"
/>
<path fill="#d7e057" d="
  M 400.21 288.25
  L 420.50 308.54
  C 419.51 310.59 419.95 312.48 421.81 314.19
  C 440.62 331.50 454.97 350.71 465.28 373.84
  C 465.51 374.36 465.40 374.98 465.00 375.38
  L 444.50 395.88
  C 444.26 396.11 443.91 396.18 443.61 396.05
  C 423.76 387.54 406.30 375.62 391.21 360.29
  C 376.58 345.42 361.84 330.66 347.00 316.00
  C 346.86 315.86 346.86 315.64 347.00 315.50
  L 384.45 277.93
  C 384.76 277.61 385.28 277.62 385.59 277.94
  C 388.93 281.40 392.18 284.60 395.35 287.55
  C 396.96 289.05 398.32 289.11 400.21 288.25
  Z
  M 406.3490 335.7970
  C 411.50 330.64 411.50 322.28 406.3490 317.1294
  L 390.9906 301.7710
  C 385.84 296.62 377.48 296.62 372.3230 301.7710
  L 371.5310 302.5630
  C 366.38 307.72 366.38 316.08 371.5310 321.2306
  L 386.8894 336.5890
  C 392.04 341.74 400.40 341.74 405.5570 336.5890
  L 406.3490 335.7970
  Z"
/>
<path fill="#3a312a" d="
  M 405.5570 336.5890
  C 400.40 341.74 392.04 341.74 386.8894 336.5890
  L 371.5310 321.2306
  C 366.38 316.08 366.38 307.72 371.5310 302.5630
  L 372.3230 301.7710
  C 377.48 296.62 385.84 296.62 390.9906 301.7710
  L 406.3490 317.1294
  C 411.50 322.28 411.50 330.64 406.3490 335.7970
  L 405.5570 336.5890
  Z
  M 387.0096 306.1763
  C 384.05 303.21 379.24 303.21 376.2757 306.1763
  L 375.9363 306.5157
  C 372.97 309.48 372.97 314.29 375.9363 317.2496
  L 390.8704 332.1837
  C 393.83 335.15 398.64 335.15 401.6043 332.1837
  L 401.9437 331.8443
  C 404.91 328.88 404.91 324.07 401.9437 321.1104
  L 387.0096 306.1763
  Z"
/>
<path fill="#f4e0c4" d="
  M 401.9437 321.1104
  C 404.91 324.07 404.91 328.88 401.9437 331.8443
  L 401.6043 332.1837
  C 398.64 335.15 393.83 335.15 390.8704 332.1837
  L 375.9363 317.2496
  C 372.97 314.29 372.97 309.48 375.9363 306.5157
  L 376.2757 306.1763
  C 379.24 303.21 384.05 303.21 387.0096 306.1763
  L 401.9437 321.1104
  Z
  M 386.30 311.50
  C 386.30 308.72 384.04 306.46 381.26 306.46
  C 378.48 306.46 376.22 308.72 376.22 311.50
  C 376.22 314.28 378.48 316.54 381.26 316.54
  C 384.04 316.54 386.30 314.28 386.30 311.50
  Z
  M 401.65 326.84
  C 401.65 324.07 399.40 321.82 396.63 321.82
  C 393.86 321.82 391.61 324.07 391.61 326.84
  C 391.61 329.61 393.86 331.86 396.63 331.86
  C 399.40 331.86 401.65 329.61 401.65 326.84
  Z"
/>
<circle fill="#3a312a" cx="381.26" cy="311.50" r="5.04"/>
<circle fill="#3a312a" cx="396.63" cy="326.84" r="5.02"/>
<path fill="#f5e1c5" d="
  M 305.20 368.68
  C 318.60 370.62 329.97 376.04 339.31 384.94
  C 352.40 397.41 356.42 411.65 356.58 429.59
  C 356.72 445.04 356.85 460.51 356.98 475.98
  L 346.13 476.00
  C 345.64 476.00 345.25 475.61 345.25 475.12
  L 345.25 435.48
  C 345.25 433.18 344.10 432.04 341.80 432.07
  C 326.83 432.28 311.56 432.34 296.01 432.25
  C 293.38 432.24 291.50 431.84 290.71 435.00
  L 269.54 435.25
  C 269.33 433.24 268.07 432.24 265.75 432.25
  C 254.32 432.32 223.21 432.30 172.44 432.19
  C 169.47 432.18 167.07 431.65 167.05 435.74
  C 166.99 448.76 166.97 461.99 167.00 475.44
  C 167.00 475.75 166.75 476.00 166.44 476.00
  L 124.06 475.94
  C 123.78 475.94 123.56 475.72 123.56 475.44
  C 123.50 461.87 123.48 448.31 123.49 434.75
  C 123.50 425.32 123.86 418.68 124.59 414.83
  C 128.77 392.76 146.37 375.13 168.36 370.15
  C 172.38 369.24 179.01 368.72 188.25 368.59
  C 203.78 368.36 214.62 368.33 220.75 368.50
  C 223.84 368.59 224.94 367.90 225.07 364.64
  C 225.28 359.13 225.34 353.40 225.24 347.45
  C 225.23 347.11 225.38 347.03 225.67 347.20
  C 246.24 359.49 265.75 360.46 286.44 347.79
  C 286.81 347.56 287.00 347.67 287.01 348.12
  L 287.25 366.27
  C 287.27 367.69 288.03 368.41 289.54 368.44
  L 305.20 368.68
  Z"
/>
<path fill="#decaad" d="
  M 356.98 475.98
  C 356.85 460.51 356.72 445.04 356.58 429.59
  C 356.42 411.65 352.40 397.41 339.31 384.94
  C 329.97 376.04 318.60 370.62 305.20 368.68
  C 313.77 368.11 322.96 368.05 332.75 368.50
  C 365.08 370.01 388.88 394.77 388.95 427.50
  C 388.98 443.25 389.00 459.23 389.00 475.44
  C 389.00 475.75 388.75 476.00 388.44 476.00
  L 356.98 475.98
  Z"
/>
<path fill="#d7e057" d="
  M 449.73 400.25
  C 449.51 399.99 449.53 399.60 449.77 399.36
  L 468.70 380.42
  C 468.91 380.21 469.23 380.19 469.46 380.36
  C 487.41 393.79 464.84 418.57 449.73 400.25
  Z"
/>
<path fill="#eb6e7a" d="
  M 290.71 435.00
  C 290.90 437.11 292.08 438.16 294.25 438.17
  C 309.00 438.22 323.75 438.25 338.50 438.25
  C 338.78 438.25 339.00 438.47 339.00 438.75
  L 339.00 475.44
  C 339.00 475.75 338.75 476.00 338.44 476.00
  L 173.77 476.00
  C 173.48 476.00 173.25 475.77 173.25 475.48
  L 173.25 438.81
  C 173.25 438.50 173.50 438.25 173.81 438.25
  C 204.77 438.25 235.50 438.24 266.00 438.23
  C 268.05 438.23 269.23 437.24 269.54 435.25
  L 290.71 435.00
  Z"
/>
</svg>
