<?xml version="1.0" encoding="UTF-8" standalone="no"?>
<!DOCTYPE svg PUBLIC "-//W3C//DTD SVG 1.1//EN" "http://www.w3.org/Graphics/SVG/1.1/DTD/svg11.dtd">
<svg xmlns="http://www.w3.org/2000/svg" version="1.1" viewBox="0 0 512 512">
<path fill="#000000" d="
  M 408.56 67.05
  C 425.51 80.90 445.46 86.76 468.41 84.64
  C 468.86 84.60 469.25 84.96 469.25 85.41
  L 469.25 126.38
  C 469.25 126.78 468.95 127.12 468.55 127.18
  C 446.37 130.11 422.46 122.98 406.43 107.65
  C 405.88 107.13 405.03 107.11 404.45 107.60
  C 387.77 121.94 368.87 128.66 347.75 127.75
  C 329.36 126.96 313.15 120.08 299.12 107.10
  C 298.91 106.90 298.59 106.89 298.39 107.08
  C 267.85 134.96 223.70 134.54 192.69 107.43
  C 192.27 107.06 191.64 107.07 191.22 107.45
  C 162.27 134.12 114.34 135.20 85.86 107.11
  C 85.65 106.90 85.32 106.89 85.10 107.09
  C 72.86 118.08 58.91 124.68 43.24 126.91
  C 42.95 126.95 42.69 126.73 42.69 126.43
  L 42.75 85.04
  C 42.75 84.63 43.05 84.28 43.45 84.22
  C 58.74 82.03 72.50 75.54 84.74 64.75
  C 85.11 64.42 85.67 64.42 86.04 64.76
  C 115.57 91.37 162.31 92.64 191.45 64.55
  C 191.79 64.22 192.34 64.22 192.67 64.55
  C 221.12 92.38 269.47 91.67 298.09 64.56
  C 298.40 64.26 298.89 64.26 299.20 64.56
  C 328.38 92.20 375.53 91.85 404.89 64.59
  C 405.11 64.38 405.44 64.35 405.69 64.51
  C 406.76 65.18 407.77 66.41 408.56 67.05
  Z"
/>
<circle fill="#000000" cx="170.65" cy="191.99" r="21.26"/>
<circle fill="#000000" cx="74.66" cy="223.99" r="31.92"/>
<path fill="#000000" d="
  M 349.68 384.06
  C 349.21 384.06 348.88 384.53 349.04 384.97
  L 361.12 418.62
  C 361.31 419.14 361.03 419.72 360.50 419.91
  L 321.79 433.67
  C 321.52 433.76 321.22 433.63 321.13 433.36
  L 303.78 384.83
  C 303.60 384.33 303.13 384.00 302.61 384.00
  L 261.61 384.00
  C 261.25 384.00 260.99 384.34 261.08 384.68
  L 276.45 441.85
  C 276.55 442.22 276.33 442.60 275.96 442.70
  L 236.10 453.39
  C 235.75 453.48 235.39 453.28 235.30 452.94
  L 216.93 384.73
  C 216.81 384.30 216.42 384.00 215.98 384.00
  L 171.51 384.00
  C 171.06 384.00 170.69 384.37 170.69 384.82
  L 170.75 468.45
  C 170.75 469.06 170.50 469.19 170.01 468.83
  L 21.93 361.41
  C 21.66 361.21 21.67 360.81 21.94 360.62
  L 170.02 256.49
  C 170.51 256.14 170.75 256.27 170.75 256.87
  L 170.69 340.57
  C 170.69 340.85 170.91 341.07 171.18 341.07
  L 215.46 341.24
  C 216.02 341.25 216.51 340.87 216.66 340.32
  L 235.13 272.70
  C 235.28 272.15 235.84 271.82 236.39 271.97
  L 276.04 282.83
  C 276.32 282.91 276.48 283.19 276.41 283.47
  L 260.87 340.68
  C 260.79 340.97 261.01 341.25 261.31 341.25
  L 302.35 341.25
  C 302.81 341.25 303.22 340.96 303.38 340.52
  L 321.12 291.91
  C 321.24 291.60 321.58 291.43 321.89 291.55
  L 360.89 305.80
  C 361.16 305.90 361.29 306.19 361.20 306.46
  L 348.81 340.59
  C 348.69 340.91 348.93 341.25 349.27 341.25
  L 389.80 341.25
  C 390.22 341.25 390.60 341.02 390.79 340.65
  L 428.91 267.94
  C 429.05 267.67 429.39 267.57 429.67 267.71
  L 466.34 287.01
  C 466.62 287.16 466.73 287.51 466.59 287.79
  L 427.92 361.60
  C 427.73 361.98 427.73 362.42 427.92 362.80
  L 466.66 437.62
  C 466.82 437.93 466.70 438.31 466.39 438.46
  L 429.88 457.28
  C 429.42 457.52 428.84 457.34 428.60 456.87
  L 391.30 384.86
  C 391.02 384.33 390.48 384.00 389.89 384.00
  L 349.68 384.06
  Z"
/>
</svg>
