<?xml version="1.0" encoding="UTF-8" standalone="no"?>
<!DOCTYPE svg PUBLIC "-//W3C//DTD SVG 1.1//EN" "http://www.w3.org/Graphics/SVG/1.1/DTD/svg11.dtd">
<svg xmlns="http://www.w3.org/2000/svg" version="1.1" viewBox="0 0 512 512">
<g stroke-width="2.00" fill="none" stroke-linecap="butt">
<path stroke="#56745c" vector-effect="non-scaling-stroke" d="
  M 227.26 247.26
  C 228.06 247.32 228.76 247.79 229.13 248.49
  C 244.58 278.06 251.93 309.31 251.18 342.23
  C 251.17 342.82 251.36 342.91 251.77 342.48
  C 277.74 315.33 299.25 285.01 316.30 251.50
  C 317.07 249.99 317.39 248.15 317.25 246.00
  C 315.25 214.98 305.36 183.63 282.56 162.16
  C 281.12 160.80 279.98 160.05 281.31 157.81
  C 282.22 156.30 283.43 156.21 284.94 157.56
  C 307.74 177.90 318.81 208.61 321.76 238.39
  C 321.84 239.20 322.05 239.23 322.39 238.49
  C 346.30 185.96 359.64 130.90 362.41 73.32
  C 362.43 72.98 362.31 72.92 362.06 73.15
  C 349.57 84.17 333.61 91.55 318.50 97.00
  C 272.98 113.40 225.17 123.52 180.70 143.40
  C 128.62 166.68 93.08 203.17 97.81 264.05
  C 102.67 326.56 154.13 365.03 211.18 377.58
  C 211.71 377.70 212.26 377.58 212.68 377.25
  C 224.09 368.52 234.98 359.03 245.34 348.79
  C 245.57 348.56 245.70 348.26 245.72 347.93
  C 247.68 314.32 241.00 282.68 225.69 253.01
  C 224.58 250.85 222.69 246.88 227.26 247.26"
/>
<path stroke="#607a66" vector-effect="non-scaling-stroke" d="
  M 291.81 302.99
  C 312.46 297.69 334.18 298.40 353.98 306.62
  C 354.29 306.75 354.54 306.96 354.69 307.23
  C 355.83 309.30 355.26 310.60 352.99 311.15
  C 352.69 311.22 352.36 311.19 352.03 311.07
  C 330.36 302.98 308.53 302.60 286.53 309.91
  C 286.22 310.01 285.96 310.20 285.76 310.46
  C 265.53 337.22 242.17 360.90 215.70 381.51
  C 215.49 381.67 215.48 381.98 215.68 382.17
  C 243.42 408.78 281.89 428.07 321.32 424.38
  C 379.39 418.93 404.20 367.18 411.19 316.19
  C 418.36 263.89 414.22 208.43 401.73 158.26
  C 394.47 129.07 383.27 101.39 368.13 75.22
  C 367.74 74.54 367.52 74.59 367.48 75.38
  C 363.37 155.91 337.89 236.15 291.43 302.45
  C 291.07 302.96 291.20 303.14 291.81 302.99"
/>
<path stroke="#56745c" vector-effect="non-scaling-stroke" d="
  M 191.5393 207.8214
  C 192.30 206.69 192.00 205.15 190.8668 204.3936
  L 180.6577 197.5333
  C 179.53 196.77 177.99 197.07 177.2299 198.2058
  L 177.1407 198.3386
  C 176.38 199.47 176.68 201.01 177.8132 201.7664
  L 188.0223 208.6267
  C 189.15 209.39 190.69 209.09 191.4501 207.9542
  L 191.5393 207.8214"
/>
<path stroke="#56745c" vector-effect="non-scaling-stroke" d="
  M 201.57 213.87
  C 197.78 213.47 197.91 216.51 199.93 218.57
  C 205.00 223.77 209.98 229.47 214.85 235.66
  C 215.78 236.83 216.86 236.99 218.09 236.16
  C 220.46 234.58 218.90 232.81 217.65 231.13
  C 213.12 225.02 208.05 219.41 202.43 214.28
  C 202.18 214.05 201.88 213.90 201.57 213.87"
/>
<path stroke="#607a66" vector-effect="non-scaling-stroke" d="
  M 380.5987 325.6927
  C 381.40 324.59 381.17 323.05 380.0643 322.2407
  L 369.8159 314.7400
  C 368.72 313.93 367.17 314.17 366.3640 315.2744
  L 366.2813 315.3873
  C 365.48 316.49 365.71 318.03 366.8157 318.8393
  L 377.0641 326.3400
  C 378.16 327.15 379.71 326.91 380.5160 325.8056
  L 380.5987 325.6927"
/>
</g>
<path fill="#1f212b" d="
  M 199.06 386.07
  C 199.58 385.69 199.53 385.41 198.91 385.24
  C 132.20 366.03 81.83 316.86 87.61 242.76
  C 91.23 196.37 118.80 164.63 158.45 143.20
  C 208.79 115.98 264.98 105.74 318.18 86.16
  C 334.86 80.01 350.39 72.48 360.94 58.69
  C 365.34 52.93 369.38 58.42 371.78 62.16
  C 409.01 120.26 424.38 191.37 424.81 259.00
  C 425.00 289.36 422.81 318.29 415.00 347.50
  C 401.34 398.58 365.08 436.11 309.31 435.19
  C 272.79 434.59 237.02 416.00 210.38 391.39
  C 210.02 391.05 209.47 391.02 209.08 391.32
  C 169.58 421.25 122.10 438.68 73.25 445.25
  C 65.08 446.35 63.98 436.04 72.50 435.00
  C 116.56 429.62 162.64 412.59 199.06 386.07
  Z
  M 227.26 247.26
  C 228.06 247.32 228.76 247.79 229.13 248.49
  C 244.58 278.06 251.93 309.31 251.18 342.23
  C 251.17 342.82 251.36 342.91 251.77 342.48
  C 277.74 315.33 299.25 285.01 316.30 251.50
  C 317.07 249.99 317.39 248.15 317.25 246.00
  C 315.25 214.98 305.36 183.63 282.56 162.16
  C 281.12 160.80 279.98 160.05 281.31 157.81
  C 282.22 156.30 283.43 156.21 284.94 157.56
  C 307.74 177.90 318.81 208.61 321.76 238.39
  C 321.84 239.20 322.05 239.23 322.39 238.49
  C 346.30 185.96 359.64 130.90 362.41 73.32
  C 362.43 72.98 362.31 72.92 362.06 73.15
  C 349.57 84.17 333.61 91.55 318.50 97.00
  C 272.98 113.40 225.17 123.52 180.70 143.40
  C 128.62 166.68 93.08 203.17 97.81 264.05
  C 102.67 326.56 154.13 365.03 211.18 377.58
  C 211.71 377.70 212.26 377.58 212.68 377.25
  C 224.09 368.52 234.98 359.03 245.34 348.79
  C 245.57 348.56 245.70 348.26 245.72 347.93
  C 247.68 314.32 241.00 282.68 225.69 253.01
  C 224.58 250.85 222.69 246.88 227.26 247.26
  Z
  M 291.81 302.99
  C 312.46 297.69 334.18 298.40 353.98 306.62
  C 354.29 306.75 354.54 306.96 354.69 307.23
  C 355.83 309.30 355.26 310.60 352.99 311.15
  C 352.69 311.22 352.36 311.19 352.03 311.07
  C 330.36 302.98 308.53 302.60 286.53 309.91
  C 286.22 310.01 285.96 310.20 285.76 310.46
  C 265.53 337.22 242.17 360.90 215.70 381.51
  C 215.49 381.67 215.48 381.98 215.68 382.17
  C 243.42 408.78 281.89 428.07 321.32 424.38
  C 379.39 418.93 404.20 367.18 411.19 316.19
  C 418.36 263.89 414.22 208.43 401.73 158.26
  C 394.47 129.07 383.27 101.39 368.13 75.22
  C 367.74 74.54 367.52 74.59 367.48 75.38
  C 363.37 155.91 337.89 236.15 291.43 302.45
  C 291.07 302.96 291.20 303.14 291.81 302.99
  Z"
/>
<path fill="#8cc78c" d="
  M 227.26 247.26
  C 222.69 246.88 224.58 250.85 225.69 253.01
  C 241.00 282.68 247.68 314.32 245.72 347.93
  C 245.70 348.26 245.57 348.56 245.34 348.79
  C 234.98 359.03 224.09 368.52 212.68 377.25
  C 212.26 377.58 211.71 377.70 211.18 377.58
  C 154.13 365.03 102.67 326.56 97.81 264.05
  C 93.08 203.17 128.62 166.68 180.70 143.40
  C 225.17 123.52 272.98 113.40 318.50 97.00
  C 333.61 91.55 349.57 84.17 362.06 73.15
  C 362.31 72.92 362.43 72.98 362.41 73.32
  C 359.64 130.90 346.30 185.96 322.39 238.49
  C 322.05 239.23 321.84 239.20 321.76 238.39
  C 318.81 208.61 307.74 177.90 284.94 157.56
  C 283.43 156.21 282.22 156.30 281.31 157.81
  C 279.98 160.05 281.12 160.80 282.56 162.16
  C 305.36 183.63 315.25 214.98 317.25 246.00
  C 317.39 248.15 317.07 249.99 316.30 251.50
  C 299.25 285.01 277.74 315.33 251.77 342.48
  C 251.36 342.91 251.17 342.82 251.18 342.23
  C 251.93 309.31 244.58 278.06 229.13 248.49
  C 228.76 247.79 228.06 247.32 227.26 247.26
  Z
  M 191.5393 207.8214
  C 192.30 206.69 192.00 205.15 190.8668 204.3936
  L 180.6577 197.5333
  C 179.53 196.77 177.99 197.07 177.2299 198.2058
  L 177.1407 198.3386
  C 176.38 199.47 176.68 201.01 177.8132 201.7664
  L 188.0223 208.6267
  C 189.15 209.39 190.69 209.09 191.4501 207.9542
  L 191.5393 207.8214
  Z
  M 201.57 213.87
  C 197.78 213.47 197.91 216.51 199.93 218.57
  C 205.00 223.77 209.98 229.47 214.85 235.66
  C 215.78 236.83 216.86 236.99 218.09 236.16
  C 220.46 234.58 218.90 232.81 217.65 231.13
  C 213.12 225.02 208.05 219.41 202.43 214.28
  C 202.18 214.05 201.88 213.90 201.57 213.87
  Z"
/>
<path fill="#a0d2a1" d="
  M 353.98 306.62
  C 334.18 298.40 312.46 297.69 291.81 302.99
  C 291.20 303.14 291.07 302.96 291.43 302.45
  C 337.89 236.15 363.37 155.91 367.48 75.38
  C 367.52 74.59 367.74 74.54 368.13 75.22
  C 383.27 101.39 394.47 129.07 401.73 158.26
  C 414.22 208.43 418.36 263.89 411.19 316.19
  C 404.20 367.18 379.39 418.93 321.32 424.38
  C 281.89 428.07 243.42 408.78 215.68 382.17
  C 215.48 381.98 215.49 381.67 215.70 381.51
  C 242.17 360.90 265.53 337.22 285.76 310.46
  C 285.96 310.20 286.22 310.01 286.53 309.91
  C 308.53 302.60 330.36 302.98 352.03 311.07
  C 352.36 311.19 352.69 311.22 352.99 311.15
  C 355.26 310.60 355.83 309.30 354.69 307.23
  C 354.54 306.96 354.29 306.75 353.98 306.62
  Z
  M 380.5987 325.6927
  C 381.40 324.59 381.17 323.05 380.0643 322.2407
  L 369.8159 314.7400
  C 368.72 313.93 367.17 314.17 366.3640 315.2744
  L 366.2813 315.3873
  C 365.48 316.49 365.71 318.03 366.8157 318.8393
  L 377.0641 326.3400
  C 378.16 327.15 379.71 326.91 380.5160 325.8056
  L 380.5987 325.6927
  Z"
/>
<rect fill="#1f212b" x="-8.62" y="-2.55" transform="translate(184.34,203.08) rotate(33.9)" width="17.24" height="5.10" rx="2.47"/>
<path fill="#1f212b" d="
  M 202.43 214.28
  C 208.05 219.41 213.12 225.02 217.65 231.13
  C 218.90 232.81 220.46 234.58 218.09 236.16
  C 216.86 236.99 215.78 236.83 214.85 235.66
  C 209.98 229.47 205.00 223.77 199.93 218.57
  C 197.91 216.51 197.78 213.47 201.57 213.87
  C 201.88 213.90 202.18 214.05 202.43 214.28
  Z"
/>
<rect fill="#1f212b" x="-8.82" y="-2.54" transform="translate(373.44,320.54) rotate(36.2)" width="17.64" height="5.08" rx="2.47"/>
</svg>
