<?xml version="1.0" encoding="UTF-8" standalone="no"?>
<!DOCTYPE svg PUBLIC "-//W3C//DTD SVG 1.1//EN" "http://www.w3.org/Graphics/SVG/1.1/DTD/svg11.dtd">
<svg xmlns="http://www.w3.org/2000/svg" version="1.1" viewBox="0 0 512 512">
<path fill="#000000" d="
  M 213.31 0.00
  L 298.81 0.00
  C 313.43 2.02 322.66 9.69 326.50 23.01
  C 328.03 28.34 327.83 34.52 327.74 40.33
  C 327.73 40.70 328.03 41.00 328.40 41.00
  C 353.07 41.00 377.77 41.00 402.51 41.00
  C 411.30 41.00 416.77 41.28 418.91 41.83
  C 427.87 44.14 434.36 52.09 437.63 60.61
  C 437.82 61.12 438.31 61.46 438.86 61.48
  C 463.31 62.24 481.18 80.45 481.24 104.75
  C 481.25 111.05 482.36 118.31 475.73 121.61
  C 471.88 123.54 465.21 122.75 460.45 122.75
  C 459.95 122.75 459.52 123.12 459.45 123.61
  C 442.57 238.32 425.74 353.15 408.95 468.10
  C 407.56 477.59 406.13 484.08 404.66 487.57
  C 398.84 501.39 385.71 510.89 370.44 512.00
  L 141.44 512.00
  C 119.53 509.66 107.38 496.42 104.29 475.53
  C 86.96 358.45 69.75 241.18 52.67 123.72
  C 52.59 123.16 52.10 122.74 51.53 122.75
  C 46.75 122.78 39.66 123.62 35.79 121.37
  C 29.78 117.89 30.77 111.58 30.72 105.50
  C 30.56 80.97 48.63 61.89 73.31 61.32
  C 73.61 61.31 73.89 61.13 74.01 60.85
  C 76.63 54.66 80.15 49.73 84.56 46.06
  C 90.76 40.91 96.90 41.00 106.07 41.00
  C 131.58 41.00 157.32 41.00 183.28 41.00
  C 183.83 41.00 184.28 40.54 184.27 39.98
  C 184.04 29.35 184.15 20.43 191.11 11.84
  C 196.81 4.80 204.21 0.85 213.31 0.00
  Z
  M 307.23 40.22
  C 307.53 28.91 308.08 20.50 293.82 20.50
  C 268.21 20.50 242.61 20.50 217.00 20.50
  C 203.57 20.50 204.75 30.26 204.75 40.13
  C 204.75 40.61 205.14 41.00 205.62 41.00
  L 306.43 41.00
  C 306.86 41.00 307.22 40.65 307.23 40.22
  Z
  M 71.75 82.00
  C 61.27 82.09 52.78 91.49 52.03 101.66
  C 51.99 102.11 52.35 102.50 52.81 102.50
  L 459.33 102.44
  C 459.75 102.44 460.08 102.06 460.02 101.64
  C 458.27 89.25 450.23 81.93 437.92 82.08
  C 429.83 82.17 422.53 81.30 421.75 71.50
  C 421.22 64.84 417.06 61.50 410.56 61.50
  C 307.67 61.50 204.79 61.50 101.91 61.50
  C 85.94 61.50 94.39 74.84 85.12 80.37
  C 81.39 82.60 76.52 81.96 71.75 82.00
  Z
  M 124.72 474.63
  C 126.20 484.72 133.02 491.47 143.50 491.47
  C 217.27 491.49 291.03 491.50 364.80 491.50
  C 379.28 491.50 385.71 485.48 387.82 471.01
  C 404.69 355.50 421.61 239.77 438.60 123.80
  C 438.68 123.25 438.26 122.75 437.70 122.75
  L 74.91 122.75
  C 74.02 122.75 73.34 123.54 73.47 124.42
  C 90.45 240.81 107.53 357.54 124.72 474.63
  Z"
/>
<rect fill="#000000" x="-10.27" y="-139.45" transform="translate(143.97,305.04) rotate(-7.5)" width="20.54" height="278.90" rx="10.18"/>
<rect fill="#000000" x="-10.26" y="-137.86" transform="translate(218.71,304.51) rotate(-2.5)" width="20.52" height="275.72" rx="10.16"/>
<rect fill="#000000" x="-10.25" y="-137.85" transform="translate(293.28,304.51) rotate(2.5)" width="20.50" height="275.70" rx="10.16"/>
<rect fill="#000000" x="-10.26" y="-139.43" transform="translate(368.02,305.07) rotate(7.5)" width="20.52" height="278.86" rx="10.13"/>
</svg>
